<svg width="16" height="16" viewBox="0 0 16 16" fill="none" xmlns="http://www.w3.org/2000/svg">
<path d="M11.893 11.24L13.6985 13.0446C13.7827 13.1318 13.8293 13.2486 13.8282 13.3698C13.8272 13.491 13.7786 13.6069 13.6929 13.6926C13.6071 13.7783 13.4912 13.8269 13.37 13.828C13.2488 13.829 13.1321 13.7824 13.0449 13.6982L11.2394 11.8927C10.0595 12.9036 8.53398 13.4182 6.98289 13.3285C5.43181 13.2389 3.97573 12.5519 2.92021 11.4118C1.86469 10.2718 1.29177 8.76717 1.32167 7.21378C1.35157 5.66039 1.98197 4.17896 3.08059 3.08034C4.1792 1.98173 5.66063 1.35133 7.21402 1.32143C8.76741 1.29153 10.272 1.86445 11.4121 2.91997C12.5522 3.97549 13.2391 5.43156 13.3288 6.98265C13.4184 8.53374 12.9038 10.0593 11.893 11.2391V11.24ZM7.32975 12.4141C8.67828 12.4141 9.97157 11.8784 10.9251 10.9249C11.8787 9.97133 12.4144 8.67803 12.4144 7.3295C12.4144 5.98097 11.8787 4.68768 10.9251 3.73412C9.97157 2.78057 8.67828 2.24487 7.32975 2.24487C5.98122 2.24487 4.68792 2.78057 3.73437 3.73412C2.78081 4.68768 2.24511 5.98097 2.24511 7.3295C2.24511 8.67803 2.78081 9.97133 3.73437 10.9249C4.68792 11.8784 5.98122 12.4141 7.32975 12.4141Z" fill="#A2A3A4"/>
</svg>
