<svg width="18" height="18" viewBox="0 0 18 18" fill="none" xmlns="http://www.w3.org/2000/svg">
<path d="M4.08651 5.83951C4.02194 5.90391 3.97071 5.98042 3.93576 6.06466C3.9008 6.1489 3.88281 6.2392 3.88281 6.3304C3.88281 6.4216 3.9008 6.51191 3.93576 6.59614C3.97071 6.68038 4.02194 6.75689 4.08651 6.8213L8.75143 11.4862C8.80275 11.5376 8.8637 11.5784 8.93081 11.6063C8.99791 11.6341 9.06984 11.6484 9.14249 11.6484C9.21514 11.6484 9.28707 11.6341 9.35417 11.6063C9.42127 11.5784 9.48223 11.5376 9.53354 11.4862L14.1985 6.8213C14.4703 6.5495 14.4703 6.1113 14.1985 5.83951C13.9267 5.56771 13.4885 5.56771 13.2167 5.83951L9.14526 9.91091L5.06831 5.83396C4.79651 5.56771 4.35831 5.56771 4.08651 5.83951Z" fill="white"/>
</svg>
