<svg width="18" height="19" viewBox="0 0 18 19" fill="none" xmlns="http://www.w3.org/2000/svg">
<path d="M10.231 5.43053C11.3202 5.43053 12.2032 4.54753 12.2032 3.45831C12.2032 2.36908 11.3202 1.48608 10.231 1.48608C9.14178 1.48608 8.25879 2.36908 8.25879 3.45831C8.25879 4.54753 9.14178 5.43053 10.231 5.43053Z" fill="#B3B3B3"/>
<path d="M12.2476 13.4328C12.1931 13.3962 12.1318 13.3708 12.0674 13.3581C12.003 13.3455 11.9367 13.3458 11.8724 13.3591C11.8081 13.3725 11.7471 13.3985 11.693 13.4357C11.6389 13.4729 11.5927 13.5206 11.5573 13.5758C11.0807 14.2817 10.4967 14.9089 9.82667 15.4346C9.66396 15.5579 9.0575 16.0263 8.80111 15.9277C8.62361 15.8735 8.72715 15.5234 8.76167 15.3755L9.02299 14.6014C9.13146 14.2858 11.0199 8.68472 11.2269 8.04375C11.5326 7.10694 11.3995 6.18493 10.0042 6.4068C9.62452 6.44625 5.77375 6.94423 5.70472 6.94916C5.63997 6.95337 5.57669 6.97029 5.51848 6.99896C5.46027 7.02763 5.40828 7.06748 5.36547 7.11624C5.32266 7.165 5.28987 7.22171 5.26898 7.28314C5.24809 7.34457 5.23951 7.40952 5.24372 7.47427C5.24792 7.53902 5.26485 7.6023 5.29351 7.66051C5.32218 7.71872 5.36203 7.77072 5.41079 7.81352C5.45955 7.85633 5.51627 7.88912 5.5777 7.91001C5.63913 7.9309 5.70407 7.93948 5.76882 7.93527C5.76882 7.93527 7.24799 7.74298 7.4107 7.72819C7.49404 7.72005 7.57795 7.73621 7.65232 7.7747C7.72668 7.8132 7.78832 7.87239 7.82979 7.94514C7.91913 8.22131 7.90689 8.52031 7.79528 8.78826C7.66708 9.28132 5.64063 14.9909 5.57653 15.3212C5.50778 15.5977 5.52687 15.8887 5.63114 16.1538C5.73541 16.4189 5.91968 16.6449 6.15833 16.8004C6.60628 17.099 7.13964 17.2427 7.67695 17.2096C8.19937 17.2033 8.71604 17.0996 9.20049 16.904C10.4282 16.4109 11.7101 15.0994 12.3856 14.0689C12.4438 13.9642 12.4619 13.8419 12.4365 13.7248C12.4111 13.6078 12.3439 13.504 12.2476 13.4328V13.4328Z" fill="#B3B3B3"/>
</svg>
