<svg width="24" height="24" viewBox="0 0 24 24" fill="none" xmlns="http://www.w3.org/2000/svg">
<path d="M21.1149 17.5189C21.6867 16.4771 21.9922 15.3101 22.0041 14.1217C22.016 12.9333 21.7341 11.7604 21.1833 10.7073C20.6325 9.65425 19.8299 8.75361 18.8471 8.08555C17.8642 7.41749 16.7314 7.00272 15.5495 6.87812C15.1744 5.9745 14.6193 5.15666 13.9181 4.4744C13.2168 3.79214 12.384 3.25972 11.4705 2.90955C10.5569 2.55938 9.5816 2.39879 8.60398 2.43755C7.62636 2.47631 6.66685 2.71361 5.78386 3.13501C4.90087 3.5564 4.11287 4.15308 3.46782 4.88873C2.82278 5.62437 2.33419 6.48358 2.03179 7.41406C1.72939 8.34455 1.6195 9.32684 1.70883 10.3011C1.79815 11.2754 2.08481 12.2214 2.55136 13.0814L1.95969 15.1615C1.90636 15.3511 1.90451 15.5516 1.95434 15.7423C2.00417 15.9329 2.10388 16.1068 2.24321 16.2462C2.38254 16.3855 2.55647 16.4852 2.74711 16.535C2.93775 16.5849 3.13823 16.583 3.32792 16.5297L5.408 15.938C6.24493 16.3998 7.16602 16.689 8.11672 16.7885C8.50184 17.7282 9.0811 18.576 9.81657 19.2762C10.552 19.9765 11.4271 20.5136 12.3845 20.8522C13.342 21.1908 14.3601 21.3234 15.3723 21.2413C16.3845 21.1591 17.368 20.8641 18.2583 20.3755L20.3383 20.9672C20.5283 21.0237 20.7301 21.0279 20.9223 20.9792C21.1144 20.9305 21.2899 20.8308 21.43 20.6907C21.5702 20.5505 21.6699 20.375 21.7186 20.1829C21.7673 19.9907 21.7631 19.789 21.7066 19.599L21.1149 17.5189ZM5.48195 14.7824C5.4283 14.7819 5.37502 14.7913 5.32479 14.8102L3.02284 15.4665L3.67922 13.1646C3.70229 13.0925 3.70929 13.0162 3.6997 12.9412C3.69012 12.8661 3.66419 12.794 3.62375 12.7301C2.86725 11.4534 2.60274 9.94448 2.87988 8.4866C3.15702 7.02872 3.95674 5.72212 5.12894 4.81207C6.30113 3.90203 7.76518 3.45111 9.24626 3.54398C10.7273 3.63684 12.1236 4.2671 13.1729 5.31644C14.2223 6.36577 14.8525 7.76203 14.9454 9.24311C15.0383 10.7242 14.5873 12.1882 13.6773 13.3604C12.7673 14.5326 11.4607 15.3324 10.0028 15.6095C8.54489 15.8866 7.03598 15.6221 5.7593 14.8656C5.67687 14.8116 5.58051 14.7827 5.48195 14.7824V14.7824ZM19.987 17.6021L20.6434 19.904L18.3415 19.2477C18.2694 19.2246 18.1931 19.2176 18.1181 19.2272C18.043 19.2368 17.9709 19.2627 17.907 19.3031C17.1876 19.7286 16.3885 20.0019 15.5593 20.1062C14.73 20.2106 13.8882 20.1437 13.0858 19.9098C12.2835 19.6758 11.5376 19.2798 10.8944 18.7461C10.2512 18.2124 9.72428 17.5524 9.34628 16.807C11.1719 16.6852 12.8832 15.8748 14.1342 14.5397C15.3853 13.2046 16.0828 11.4442 16.0857 9.61458C16.0836 9.08898 16.0248 8.56515 15.9101 8.05221C16.8751 8.23347 17.7823 8.64463 18.5548 9.25086C19.3272 9.85709 19.9422 10.6405 20.3476 11.5349C20.7531 12.4292 20.937 13.408 20.8839 14.3885C20.8308 15.369 20.5422 16.3223 20.0425 17.1676C20.0021 17.2315 19.9761 17.3036 19.9666 17.3787C19.957 17.4537 19.964 17.53 19.987 17.6021V17.6021Z" fill="#959799"/>
</svg>
